<svg height="97.501" viewBox="0 0 97.518 97.501" width="97.518" xmlns="http://www.w3.org/2000/svg"><path d="m39.956 0a39.949 39.949 0 0 0 -28.372 68.079 2.677 2.677 0 0 0 4.372-.852 26.006 26.006 0 0 1 48 0 2.677 2.677 0 0 0 4.372.852 39.949 39.949 0 0 0 -28.372-68.079z" fill="#f3f9ff"/><path d="m223.866 51.236a25.954 25.954 0 0 1 24 15.991 2.677 2.677 0 0 0 4.372.852 39.949 39.949 0 0 0 -28.372-68.079z" fill="#e1eeff" transform="translate(-183.91)"/><ellipse cx="14.338" cy="14.338" fill="#b4ebff" rx="14.338" ry="14.338" transform="matrix(.38290917 -.923786 .923786 .38290917 21.233 39.306)"/><path d="m118.644 276.346a31.361 31.361 0 0 0 -57.882 0 2.677 2.677 0 0 0 .569 2.917 39.931 39.931 0 0 0 56.744 0 2.677 2.677 0 0 0 .569-2.917z" fill="#60c7ff" transform="translate(-49.747 -211.184)"/><path d="m223.866 96.4a14.338 14.338 0 1 1 0 28.676z" fill="#60c7ff" transform="translate(-183.91 -79.194)"/><path d="m223.866 291.1a39.676 39.676 0 0 0 28.372-11.833 2.677 2.677 0 0 0 .569-2.917 31.3 31.3 0 0 0 -28.941-19.28z" fill="#2585fd" transform="translate(-183.91 -211.184)"/><circle cx="19.883" cy="19.883" fill="#aaec78" r="19.883" transform="matrix(.38290917 -.923786 .923786 .38290917 45.544 82.27)"/><path d="m400.6 289.2a19.883 19.883 0 0 1 0 39.766z" fill="#00d048" transform="translate(-329.1 -237.583)"/><path d="m367.615 359.2h-3.058v-3.058a2.677 2.677 0 1 0 -5.354 0v3.058h-3.058a2.677 2.677 0 0 0 0 5.354h3.055v3.058a2.677 2.677 0 0 0 5.354 0v-3.058h3.058a2.677 2.677 0 1 0 0-5.354z" fill="#f3f9ff" transform="translate(-290.38 -290.38)"/><path d="m400.6 370.292a2.677 2.677 0 0 0 2.677-2.677v-3.058h3.058a2.677 2.677 0 0 0 0-5.354h-3.058v-3.058a2.677 2.677 0 0 0 -2.677-2.677z" fill="#e1eeff" transform="translate(-329.1 -290.38)"/></svg>