<svg height="94.819" viewBox="0 0 81.73 94.819" width="81.73" xmlns="http://www.w3.org/2000/svg" xmlns:xlink="http://www.w3.org/1999/xlink"><clipPath id="a"><path d="m0 0h80.622v82.12h-80.622z"/></clipPath><clipPath id="b"><path d="m0 0h216.142v10.81h-216.142z"/></clipPath><g clip-path="url(#a)" transform="translate(.586 12.699)"><g clip-path="url(#b)" transform="translate(0 -36.208)"><g clip-path="url(#b)"><path d="m0 0h197.126v10.779h-197.126z" fill="none" transform="translate(9.484 -.009)"/></g></g></g><g clip-path="url(#a)" transform="translate(.586 12.699)"><g clip-path="url(#b)" transform="translate(0 -25.463)"><g clip-path="url(#b)"><path d="m0 0h197.126v10.779h-197.126z" fill="none" transform="translate(9.484 .025)"/></g></g></g><g clip-path="url(#a)" transform="translate(.586 12.699)"><g clip-path="url(#b)" transform="translate(0 -14.653)"><g clip-path="url(#b)"><path d="m0 0h211.221v10.779h-211.221z" fill="none" transform="translate(2.444 -.006)"/></g></g></g><path d="m29.761 81.599h22.272v1.498h-22.272z" fill="#156c52"/><path d="m16.921 125.461v-.977c0-.2-.065-.326-.2-.326h-.26a.064.064 0 0 1 -.065-.065v-.131a.064.064 0 0 1 .065-.065h2.019a1.679 1.679 0 0 1 1.042.391 1.036 1.036 0 0 1 .326.651 1.055 1.055 0 0 1 -1.107 1.107v.065c.2.065.26.2.391.326.065.065.391.651.456.716s.326.521.456.651a.941.941 0 0 0 .456.131c.065 0 .065 0 .065.065v.131c0 .065 0 .065-.065.065h-1.235a5.636 5.636 0 0 1 -.651-1.042c-.2-.391-.456-.847-.716-.847h-.2v1.433c0 .131.065.26.131.26h.26c.065 0 .065 0 .065.065v.131c0 .065 0 .065-.065.065h-1.624c-.065 0-.065 0-.065-.065v-.196h.2c.131 0 .26-.065.26-.2v-1.693l.065-.651zm.781.651h.26a.992.992 0 0 0 .977-1.042.971.971 0 0 0 -.2-.651.933.933 0 0 0 -.651-.26c-.131 0-.2 0-.2.065-.065 0-.065.065-.065.131z" transform="translate(-16.4 -52.393)"/><path d="m24.533 125.486a1.284 1.284 0 0 0 .586-.065c.131 0 .2-.065.26-.2a.7.7 0 0 0 .131-.391c0-.065 0-.065.065-.065h.131a.064.064 0 0 1 .065.065v.586a1.815 1.815 0 0 0 .065.651c0 .065 0 .065-.065.065h-.131a.064.064 0 0 1 -.065-.065.688.688 0 0 0 -.131-.326.358.358 0 0 0 -.326-.2c-.131 0-.326-.065-.586-.065v1.3c0 .326.065.391.131.456s.2.065.521.065h.456a.7.7 0 0 0 .456-.2c.131-.131.456-.521.586-.651h.065l.131.065v.065l-.26.912c0 .065-.065.065-.131.065h-3.322c-.065 0-.065 0-.065-.065v-.131c0-.065 0-.065.065-.065h.2c.26 0 .326-.065.326-.26v-3.256c0-.2-.065-.26-.26-.26h-.261v-.2a.064.064 0 0 1 .065-.065h3.256a5.425 5.425 0 0 0 .26.977v.065l-.065.065h-.065a3.559 3.559 0 0 0 -.716-.651.941.941 0 0 0 -.456-.131h-.781zm.326-2.41.782-.846a.338.338 0 0 1 .26-.131c.2 0 .26.131.26.326 0 .131-.131.2-.2.26l-.977.456h-.065z" transform="translate(-18.737 -51.768)"/><path d="m30.933 126.565v1.172a.173.173 0 0 0 .2.2h.326c.065 0 .065 0 .065.065v.131a.064.064 0 0 1 -.065.065h-1.828c-.065 0-.065 0-.065-.065v-.133a.064.064 0 0 1 .065-.065h.131c.2 0 .26 0 .26-.2v-3.451c0-.131-.065-.131-.2-.131h-.261a.064.064 0 0 1 -.065-.065v-.131a.064.064 0 0 1 .065-.065h1.563a2.122 2.122 0 0 1 1.433.326 1.14 1.14 0 0 1 .456.912c0 .716-.586 1.172-1.563 1.172h-.45l-.065.26zm0-.456c.131 0 .26.065.391.065a.867.867 0 0 0 .586-.391 1.071 1.071 0 0 0 .131-.651c0-.847-.586-.977-.847-.977h-.261z" transform="translate(-20.969 -52.391)"/><path d="m35.821 124.483c0-.2-.065-.326-.2-.326h-.26c-.065 0-.065 0-.065-.065v-.131c0-.065 0-.065.065-.065h1.823c.065 0 .065 0 .065.065v.131a.064.064 0 0 1 -.065.065h-.131a.3.3 0 0 0 -.326.26v2.41a1.313 1.313 0 0 0 .2.716.83.83 0 0 0 .716.326 1.6 1.6 0 0 0 .716-.26 1.143 1.143 0 0 0 .391-.977v-.912c0-.521-.065-1.172-.065-1.3a.291.291 0 0 0 -.2-.26h-.2c-.065 0-.065 0-.065-.065v-.131a.064.064 0 0 1 .065-.065h1.3c.065 0 .065 0 .065.065v.131c0 .065 0 .065-.065.065h-.2a.29.29 0 0 0 -.26.2v2.34a1.622 1.622 0 0 1 -.521 1.107 1.479 1.479 0 0 1 -1.042.391 4.4 4.4 0 0 1 -.912-.131 1.7 1.7 0 0 1 -.716-.781 3.652 3.652 0 0 1 -.131-1.433z" transform="translate(-22.992 -52.393)"/><path d="m42.986 125.625v-1.042c0-.326-.131-.326-.326-.326h-.2c-.065 0-.065 0-.065-.065v-.131c0-.065 0-.065.065-.065h1.889a4.081 4.081 0 0 1 1.042.131.85.85 0 0 1 .456.781 1.068 1.068 0 0 1 -.847.977c.716.2 1.107.521 1.107 1.172a1.139 1.139 0 0 1 -.456.912 3.148 3.148 0 0 1 -1.368.2h-1.752c-.065 0-.065 0-.065-.065v-.131c0-.065 0-.065.065-.065h.2c.2 0 .2-.065.26-.26v-2.018zm.847.26c.26 0 .651 0 .781-.2a.979.979 0 0 0 .26-.716.707.707 0 0 0 -.26-.586 1.5 1.5 0 0 0 -.586-.2c-.131 0-.26 0-.26.131v1.563h.065zm0 1.368c0 .586.131.781.456.781.391 0 .847-.2.847-.977a.905.905 0 0 0 -.521-.912 1.822 1.822 0 0 0 -.716-.131v1.237z" transform="translate(-25.468 -52.427)"/><path d="m50.333 126.241v1.628h1.167c.326 0 .716-.716.781-.977a.064.064 0 0 1 .065-.065l.131.065v.065c0 .065-.26 1.042-.26 1.172h-3.252c-.065 0-.065 0-.065-.065v-.131a.064.064 0 0 1 .065-.065h.2c.2 0 .26-.065.26-.131v-3.385a.173.173 0 0 0 -.2-.2h-.195c-.065 0-.065 0-.065-.065v-.131a.064.064 0 0 1 .065-.065h1.823c.065 0 .065 0 .065.065v.131a.064.064 0 0 1 -.065.065h-.261c-.2 0-.2.065-.2.2v1.368z" transform="translate(-27.735 -52.392)"/><path d="m55.621 125.723v-1.3a.173.173 0 0 0 -.2-.2h-.26a.064.064 0 0 1 -.065-.065v-.2a.064.064 0 0 1 .065-.065h1.823a.064.064 0 0 1 .065.065v.131a.064.064 0 0 1 -.065.065h-.2c-.131 0-.26.065-.26.131v3.386c0 .2.065.2.2.2h.26a.064.064 0 0 1 .065.065v.2a.064.064 0 0 1 -.065.065h-1.753a.064.064 0 0 1 -.065-.065v-.136a.064.064 0 0 1 .065-.065h.2c.131 0 .26 0 .26-.131v-1.693l-.065-.391z" transform="translate(-29.898 -52.395)"/><path d="m63.073 124.54a2.173 2.173 0 0 1 .586 1.5 2.279 2.279 0 0 1 -.586 1.563 2.55 2.55 0 0 1 -1.042.651c.521.2.977.326 1.368.456a4.977 4.977 0 0 0 1.758.26.591.591 0 0 0 .456-.2h.065l.065.065v.065c-.131.2-.586.716-.912.716a3.518 3.518 0 0 1 -1.5-.326c-.651-.26-1.3-.521-2.279-.977a2.927 2.927 0 0 1 -1.368-.716 2.208 2.208 0 0 1 .131-3.126 2.6 2.6 0 0 1 1.562-.585 2.25 2.25 0 0 1 1.696.654zm-.391 1.628a2.471 2.471 0 0 0 -.521-1.563 1.137 1.137 0 0 0 -.912-.456 1.059 1.059 0 0 0 -.716.326 1.908 1.908 0 0 0 -.521 1.368 2.439 2.439 0 0 0 .586 1.693 1.126 1.126 0 0 0 .781.391c1.043.064 1.304-1.238 1.304-1.759z" transform="translate(-31.293 -52.385)"/><path d="m67.421 124.483c0-.2-.065-.326-.2-.326h-.26c-.065 0-.065 0-.065-.065v-.131c0-.065 0-.065.065-.065h1.823c.065 0 .065 0 .065.065v.131a.064.064 0 0 1 -.065.065h-.2a.3.3 0 0 0 -.326.26v2.41a1.313 1.313 0 0 0 .2.716.83.83 0 0 0 .716.326 1.6 1.6 0 0 0 .716-.26 1.143 1.143 0 0 0 .391-.977v-.912c0-.521-.065-1.172-.065-1.3a.291.291 0 0 0 -.2-.26h-.2c-.065 0-.065 0-.065-.065v-.131a.064.064 0 0 1 .065-.065h1.3c.065 0 .065 0 .065.065v.131c0 .065 0 .065-.065.065h-.2a.29.29 0 0 0 -.26.2v2.34a1.622 1.622 0 0 1 -.521 1.107 1.479 1.479 0 0 1 -1.042.391 4.4 4.4 0 0 1 -.912-.131 1.7 1.7 0 0 1 -.716-.781 3.652 3.652 0 0 1 -.131-1.433v-1.368h.065z" transform="translate(-34.013 -52.393)"/><path d="m75.533 126.108a1.284 1.284 0 0 0 .586-.065c.131 0 .2-.065.26-.2a.7.7 0 0 0 .131-.391c0-.065 0-.065.065-.065h.131a.064.064 0 0 1 .065.065v.585a1.815 1.815 0 0 0 .065.651c0 .065 0 .065-.065.065h-.131a.064.064 0 0 1 -.065-.065.688.688 0 0 0 -.131-.326.358.358 0 0 0 -.326-.2c-.131 0-.326-.065-.586-.065v1.3c0 .326.065.391.131.456s.2.065.521.065h.456a.7.7 0 0 0 .456-.2c.131-.131.456-.521.586-.651h.065l.131.065v.065l-.26.912c0 .065-.065.065-.131.065h-3.322c-.065 0-.065 0-.065-.065v-.109c0-.065 0-.065.065-.065h.2c.26 0 .326-.065.326-.26v-3.256c0-.2-.065-.26-.26-.26h-.261v-.2a.064.064 0 0 1 .065-.065h3.256a5.426 5.426 0 0 0 .26.977v.065l-.065.065h-.065a3.559 3.559 0 0 0 -.716-.651.941.941 0 0 0 -.456-.131h-.781z" transform="translate(-36.524 -52.39)"/><path d="m84.691 124.349h-.2a3.442 3.442 0 0 0 -.781.065 2.827 2.827 0 0 0 -.521.651l-.065.065-.124-.065v-.065c.065-.26.26-1.042.26-1.172a.227.227 0 0 1 .065-.131c.065 0 .065 0 .131.065a.551.551 0 0 0 .391.131c.326 0 .586.065 1.172.065h.326a4.99 4.99 0 0 0 1.172-.065.941.941 0 0 0 .456-.131c.065-.065.065-.065.131-.065s.065 0 .065.065c0 .131.131.847.2 1.172v.066l-.131.065a.064.064 0 0 1 -.065-.065 5.694 5.694 0 0 0 -.521-.651 3.27 3.27 0 0 0 -.781-.131h-.271v3.451c0 .131.065.26.2.26h.26c.065 0 .065 0 .065.065v.131a.064.064 0 0 1 -.065.065h-1.89c-.065 0-.065 0-.065-.065v-.131c0-.065 0-.065.065-.065h.33a.173.173 0 0 0 .2-.2v-3.385z" transform="translate(-39.626 -52.324)"/><path d="m90.945 127.83a2.172 2.172 0 0 1 -.847-1.759 2.3 2.3 0 0 1 .521-1.5 2.05 2.05 0 0 1 1.693-.781 1.994 1.994 0 0 1 1.433.456 2.149 2.149 0 0 1 .781 1.758 1.991 1.991 0 0 1 -.456 1.3 2.227 2.227 0 0 1 -1.823.847 1.77 1.77 0 0 1 -1.302-.321zm2.735-1.693c0-1.3-.847-2.019-1.368-2.019a1.112 1.112 0 0 0 -.781.326 2.276 2.276 0 0 0 -.521 1.433c0 1.5.847 2.084 1.368 2.084 1.107-.001 1.302-1.303 1.302-1.824z" transform="translate(-42.103 -52.353)"/><path d="m102.138 127.5v.2a.064.064 0 0 1 -.065.065 3.352 3.352 0 0 1 -1.758.391 2.307 2.307 0 0 1 -1.693-.651 2.141 2.141 0 0 1 -.521-1.628 2.051 2.051 0 0 1 .716-1.5 2.435 2.435 0 0 1 1.693-.586 3.548 3.548 0 0 1 1.237.26.09.09 0 0 0 .131 0l.065-.065a.064.064 0 0 1 .065-.065c.065 0 .065.065.065.131l.065 1.237v.131l-.2.065c-.065 0-.065 0-.065-.065a2.189 2.189 0 0 0 -.521-.912 1.462 1.462 0 0 0 -.912-.391 1.233 1.233 0 0 0 -.912.456 2.294 2.294 0 0 0 -.456 1.368 2.319 2.319 0 0 0 .521 1.628 1.183 1.183 0 0 0 .912.391.973.973 0 0 0 .651-.131c.131-.065.131-.26.131-.586v-.456c0-.2-.065-.26-.2-.26h-.26c-.065 0-.065 0-.065-.065v-.131a.064.064 0 0 1 .065-.065h1.628c.065 0 .065 0 .065.065v.131c0 .065 0 .065-.065.065h-.2a.173.173 0 0 0 -.2.2v.781h.065z" transform="translate(-44.895 -52.351)"/><path d="m106.745 127.83a2.172 2.172 0 0 1 -.847-1.759 2.3 2.3 0 0 1 .521-1.5 2.05 2.05 0 0 1 1.693-.781 1.994 1.994 0 0 1 1.433.456 2.149 2.149 0 0 1 .781 1.758 1.991 1.991 0 0 1 -.456 1.3 2.227 2.227 0 0 1 -1.823.847 1.77 1.77 0 0 1 -1.302-.321zm2.735-1.693c0-1.3-.847-2.019-1.368-2.019a1.112 1.112 0 0 0 -.781.326 2.276 2.276 0 0 0 -.521 1.433c0 1.5.847 2.084 1.368 2.084 1.107-.001 1.302-1.303 1.302-1.824z" transform="translate(-47.614 -52.353)"/><path d="m115.035 126.344v1.628h1.172c.326 0 .716-.716.781-.977a.064.064 0 0 1 .065-.065l.131.065v.065c0 .065-.26 1.042-.26 1.172h-3.256c-.065 0-.065 0-.065-.065v-.131a.064.064 0 0 1 .065-.065h.2c.2 0 .26-.065.26-.131v-3.385a.173.173 0 0 0 -.2-.2h-.2c-.065 0-.065 0-.065-.065v-.131a.064.064 0 0 1 .065-.064h1.823c.065 0 .065 0 .065.065v.131a.064.064 0 0 1 -.065.065h-.26c-.2 0-.2.065-.2.2v1.368l-.065.521z" transform="translate(-50.303 -52.431)"/><path d="m120.568 126.464a5.5 5.5 0 0 0 -.326 1.107.239.239 0 0 0 .26.26h.2c.065 0 .065 0 .065.065v.131c0 .065 0 .065-.065.065h-1.433a.064.064 0 0 1 -.065-.065v-.127c0-.065 0-.065.065-.065h.131a.471.471 0 0 0 .391-.26c.065-.131.521-1.172.716-1.693.065-.131.521-1.368.586-1.563 0-.065.065-.131 0-.2l-.065-.065a.064.064 0 0 1 .065-.065c.2-.065.586-.2.651-.326l.065-.065c.065 0 .065.065.065.131.131.391.586 1.693.716 2.084.131.456.521 1.563.586 1.693.131.2.26.26.326.26h.2c.065 0 .065 0 .065.065v.131c0 .065 0 .065-.065.065h-1.823a.064.064 0 0 1 -.065-.065v-.131a.064.064 0 0 1 .065-.065h.2a.173.173 0 0 0 .2-.2c-.065-.2-.26-.977-.326-1.172h-1.368v.065zm1.237-.26c-.065-.2-.391-1.433-.456-1.563a.227.227 0 0 0 -.065-.131c-.065 0-.065 0-.065.065s-.521 1.5-.586 1.628z" transform="translate(-52.254 -52.29)"/><path d="m127.221 125.723v-1.3a.173.173 0 0 0 -.2-.2h-.26a.064.064 0 0 1 -.065-.065v-.2a.064.064 0 0 1 .065-.065h1.823a.064.064 0 0 1 .065.065v.131a.064.064 0 0 1 -.065.065h-.2c-.131 0-.26.065-.26.131v3.386c0 .2.065.2.2.2h.26a.064.064 0 0 1 .065.065v.2a.064.064 0 0 1 -.065.065h-1.758a.064.064 0 0 1 -.065-.065v-.136a.064.064 0 0 1 .065-.065h.2c.131 0 .26 0 .26-.131v-1.693l-.065-.391z" transform="translate(-54.87 -52.395)"/><path d="m131.088 126.61a3.176 3.176 0 0 0 .26.716.9.9 0 0 0 .716.391.7.7 0 0 0 .716-.651c0-.521-.065-.651-.847-.912a2.481 2.481 0 0 1 -.847-.521 1.238 1.238 0 0 1 -.326-.847.834.834 0 0 1 .456-.847 1.309 1.309 0 0 1 .847-.26 1.649 1.649 0 0 1 .781.131h.131l.065-.065.065-.065c.065 0 .065.065.065.131l.065 1.042v.065l-.131.065a.064.064 0 0 1 -.065-.065 1.538 1.538 0 0 0 -.391-.586.635.635 0 0 0 -.586-.26.644.644 0 0 0 -.651.521.7.7 0 0 0 .131.521 2.194 2.194 0 0 0 .781.391 2.439 2.439 0 0 1 .781.456c.26.2.326.456.326.912a1.266 1.266 0 0 1 -1.3 1.3 1.541 1.541 0 0 1 -1.042-.26.2.2 0 0 0 -.131-.065c-.065 0-.065.065-.065.131-.065.065-.065.065-.131.065s-.065 0-.065-.065l.065-1.107c0-.065 0-.065.065-.065z" transform="translate(-56.262 -52.306)"/><path d="m137.533 126.108a1.284 1.284 0 0 0 .586-.065c.131 0 .2-.065.26-.2a.7.7 0 0 0 .131-.391c0-.065 0-.065.065-.065h.131a.064.064 0 0 1 .065.065v.585a1.815 1.815 0 0 0 .065.651c0 .065 0 .065-.065.065h-.131a.064.064 0 0 1 -.065-.065.688.688 0 0 0 -.131-.326.358.358 0 0 0 -.326-.2c-.131 0-.326-.065-.586-.065v1.3c0 .326.065.391.131.456s.2.065.521.065h.456a.7.7 0 0 0 .456-.2c.131-.131.456-.521.586-.651h.065l.131.065v.065l-.26.912c0 .065-.065.065-.131.065h-3.322c-.065 0-.065 0-.065-.065v-.109c0-.065 0-.065.065-.065h.2c.26 0 .326-.065.326-.26v-3.256c0-.2-.065-.26-.26-.26h-.26v-.2a.064.064 0 0 1 .065-.065h3.256a5.427 5.427 0 0 0 .26.977v.065l-.065.065h-.065a3.559 3.559 0 0 0 -.716-.651.941.941 0 0 0 -.456-.131h-.781z" transform="translate(-58.148 -52.39)"/><path d="m89.06 47.789c0 17.323-9.509 31.389-21.23 31.389s-21.23-14.066-21.23-31.389c0-17.257 9.509-31.389 21.23-31.389 11.657.065 21.23 14.132 21.23 31.389z" fill="#fff" transform="translate(-26.933 -14.902)"/><path d="m86.25 30.657a19.122 19.122 0 0 0 -2.214-2.344 20.737 20.737 0 0 0 -7.294-4.558l.2-.977h-.065a13.911 13.911 0 0 0 -2.214-.587 16.612 16.612 0 0 0 -7.164 0c-.716.131-1.5.391-2.214.586h-.065l.2.977a19.848 19.848 0 0 0 -7.294 4.558c-.716.716-1.433 1.5-2.148 2.279l-.065.065 2.6 3.126.065.065 2.735-.391c.065 0 .065-.065.065-.131v-.065l-.977-1.5a16.759 16.759 0 0 1 6.056-3.647 17.457 17.457 0 0 1 1.758-.456h.065l-.2-1.368a13.35 13.35 0 0 1 5.861 0l-.2 1.368h.065a15.519 15.519 0 0 1 7.815 4.1l-.912 1.563v.065c0 .065 0 .131.065.131l2.735.391c.065 0 .065 0 .065-.065zm-4.233 1.5.2.2.26.26.2.2a1.144 1.144 0 0 1 .26.326c.065.065.065.131.131.131a1.727 1.727 0 0 1 .326.391l-2.541-.326.847-1.368a.406.406 0 0 1 .317.184zm-22.858.912c.065-.131.2-.2.26-.326l.2-.2.26-.26.2-.2.2-.2.847 1.368-2.475.391a1.727 1.727 0 0 0 .326-.391zm7.23-5.08a16.759 16.759 0 0 0 -6.056 3.647l-.065.065-.456.456-.131.131-.326.326-.2.195-.26.26-.2.2-.2.2-2.344-2.8a22.568 22.568 0 0 1 2.084-2.214 20.3 20.3 0 0 1 7.23-4.493l.651 2.865c0 .065 0 .065.065.065l1.758.651a10.953 10.953 0 0 0 -1.564.456zm1.563-1.628.131 1.107-1.823-.651a8.171 8.171 0 0 1 1.692-.456zm.065-.26a18.651 18.651 0 0 0 -1.823.456l-.847-3.712a13.185 13.185 0 0 1 2.148-.586 16.315 16.315 0 0 1 3.582-.391 16.758 16.758 0 0 1 3.582.391 13.185 13.185 0 0 1 2.148.586l-.847 3.712a14.922 14.922 0 0 0 -1.823-.456 15.735 15.735 0 0 0 -3.061-.326 23.175 23.175 0 0 0 -3.06.326zm7.815.716-1.823.651.131-1.107a7.208 7.208 0 0 1 1.692.456zm-.132 1.17a11.711 11.711 0 0 0 -1.433-.391l1.758-.651a.064.064 0 0 0 .065-.065l.651-2.865a20.316 20.316 0 0 1 7.23 4.494 22.568 22.568 0 0 1 2.082 2.214l-2.344 2.8-.194-.2-.2-.2-.26-.26-.2-.2c-.065-.131-.2-.2-.326-.326l-.131-.131-.456-.456-.065-.065a17.067 17.067 0 0 0 -6.177-3.698z" transform="translate(-30.18 -16.786)"/><path d="m67.028 14.1c-12.504 0-22.728 14.718-22.728 32.887s10.159 32.887 22.728 32.887 22.727-14.718 22.727-32.887-10.223-32.887-22.727-32.887zm0 64.276c-11.722 0-21.23-14.067-21.23-31.389.002-17.257 9.508-31.387 21.23-31.387s21.23 14.067 21.23 31.389-9.573 31.387-21.23 31.387z" fill="#156c52" transform="translate(-26.131 -14.1)"/><g fill="#ffce15"><path d="m73.841 50.711-2.215-12.374-.326-.521.26-.716.456.651-.2.521z" transform="translate(-35.548 -22.122)"/><path d="m85.7 37.816-.391.456-2.209 12.633 2.019-12.633-.2-.521.521-.651z" transform="translate(-39.663 -22.122)"/><path d="m81.151 67.65a1.415 1.415 0 0 0 -1.368.326c-.781.586-.326 1.823-.326 1.823a1.653 1.653 0 0 0 -1.5-.326c-.847.2-.912 1.563-.912 1.563s-.651-.977-1.368-.977-1.368.977-1.368.977-.065-1.3-.912-1.563a1.653 1.653 0 0 0 -1.5.326s.456-1.237-.326-1.823a1.419 1.419 0 0 0 -1.368-.326 2.16 2.16 0 0 0 .456-1.693c-.2-.912-1.368-1.042-1.368-1.042s1.172-.39 1.172-1.367a2.178 2.178 0 0 0 -.912-1.563 1.278 1.278 0 0 0 1.5-.716 1.97 1.97 0 0 0 -.2-1.824 1.28 1.28 0 0 0 1.628 0 1.97 1.97 0 0 0 .586-1.563 1.569 1.569 0 0 0 1.172.586 1.661 1.661 0 0 0 1.368-1.172 1.661 1.661 0 0 0 1.368 1.172 1.865 1.865 0 0 0 1.172-.651 2.26 2.26 0 0 0 .651 1.563 1.2 1.2 0 0 0 1.628 0 1.97 1.97 0 0 0 -.2 1.823 1.4 1.4 0 0 0 1.5.716 2.177 2.177 0 0 0 -.912 1.563c0 .912 1.172 1.368 1.172 1.368a1.678 1.678 0 0 0 -1.368 1.042 2.668 2.668 0 0 0 .535 1.758z" transform="translate(-34.85 -29.163)"/></g><path d="m77.347 65.833a1.374 1.374 0 0 0 -1.563-1.433h-2.084v4.494h.977v-1.564h.781l.782 1.563h1.107l-.847-1.758a1.274 1.274 0 0 0 .847-1.302zm-2.67-.521h1.107c.391 0 .586.2.586.521s-.2.521-.586.521h-1.107z" transform="translate(-36.385 -31.643)"/><path d="m79.8 64.3v.977h1.3v3.581h.977v-3.581h1.237v-.977z" transform="translate(-38.513 -31.608)"/><path d="m59.016 34.221 1.3 1.3-.26.2-1.3-1.3-.26.26-.2-.2.781-.781.2.2z" transform="translate(-31.014 -20.936)"/><path d="m61.919 34.145-.847-.456-.2.131.586.651-.2.195-1.358-1.566.456-.391a.561.561 0 0 1 .847.065.622.622 0 0 1 .131.651l.912.521zm-1.433-1.172-.2.2.391.456.2-.2a.272.272 0 0 0 0-.456.244.244 0 0 0 -.391 0z" transform="translate(-31.572 -20.534)"/><path d="m63.728 32.8-.391-.326-.391.26.26.521-.26.195-.846-1.95.26-.2 1.693 1.368zm-.912-.781c-.131-.065-.26-.26-.326-.326a2.168 2.168 0 0 1 .2.391l.131.326.26-.2z" transform="translate(-32.339 -20.099)"/><path d="m64.823 31.719-.2.131-1.623-1.434.26-.2.781.716.326.326a1.1 1.1 0 0 0 -.2-.391l-.391-.977.261-.2z" transform="translate(-32.653 -19.541)"/><path d="m66.8 30.793-.391-.391-.391.26.2.521-.26.131-.658-2.083.26-.131 1.5 1.563zm-.847-.912c-.065-.131-.26-.26-.326-.326a4.153 4.153 0 0 1 .131.456l.131.326.26-.2z" transform="translate(-33.455 -19.331)"/><path d="m67.777 30.219-.977-1.888.26-.131.977 1.889z" transform="translate(-33.979 -19.018)"/><path d="m68.747 29.819-.847-1.888.26-.131.716 1.628.586-.26.131.26z" transform="translate(-34.362 -18.878)"/><path d="m89.181 28.868-.2-.131-.326.781-.26-.131.847-1.888.521.26a.533.533 0 0 1 .26.781c-.255.393-.581.46-.842.328zm.326-.847-.2-.131-.26.586.2.131a.29.29 0 0 0 .391-.2c.13-.191.062-.321-.131-.386z" transform="translate(-41.512 -18.774)"/><path d="m90.513 30.754.131-.521-.391-.2-.391.456-.26-.131 1.432-1.558.26.131-.521 2.083zm.391-1.172a1.656 1.656 0 0 0 .131-.456c-.065.065-.2.26-.326.391l-.2.26.326.131z" transform="translate(-41.932 -19.227)"/><path d="m93.037 29.88-.977 1.562-.26-.131.977-1.563-.326-.2.131-.26.912.586-.131.26z" transform="translate(-42.698 -19.396)"/><path d="m93.616 32.614.26-.912-.2-.131-.521.717-.26-.2 1.242-1.688.456.326a.491.491 0 0 1 .131.781c-.2.26-.391.326-.586.26l-.326.977zm.847-1.628-.26-.2-.391.521.2.131a.279.279 0 0 0 .456-.065c.2-.2.13-.326 0-.391z" transform="translate(-43.082 -19.785)"/><path d="m94.7 33.428 1.3-1.628.2.2-1.3 1.628z" transform="translate(-43.709 -20.274)"/><path d="m95.5 34.163 1.433-1.563.716.651-.2.2-.521-.456-.391.391.326.326-.2.2-.326-.326-.456.521.521.521-.131.2z" transform="translate(-43.988 -20.553)"/><path d="m72.756 26.284-.456-2.019.26-.065.391 1.758.651-.131.065.26z" transform="translate(-35.897 -17.623)"/><path d="m74.626 25.948-.326-2.083.26-.065.326 2.084z" transform="translate(-36.595 -17.483)"/><path d="m76.316 25.68-.521.065-.2-2.083.521-.065c.326-.065.586.131.651.521a.507.507 0 0 1 -.2.456.434.434 0 0 1 .326.456.7.7 0 0 1 -.577.65zm-.261-1.823h-.255l.065.586h.26a.3.3 0 0 0 .26-.326c-.004-.195-.134-.26-.329-.26zm.131.847h-.261l.065.651h.26c.2 0 .26-.131.26-.391 0-.2-.2-.261-.326-.261z" transform="translate(-37.048 -17.41)"/><path d="m77.965 25.584-.065-2.084h.977v.26h-.717v.586h.456v.26h-.456v.716h.716v.26z" transform="translate(-37.85 -17.379)"/><path d="m80.747 25.584-.26-.912h-.261l-.065.912h-.261l.131-2.084.586.065a.475.475 0 0 1 .521.586.455.455 0 0 1 -.391.521l.26.976zm-.2-1.823h-.26l-.065.586h.26c.2 0 .326-.065.326-.26.069-.196-.061-.261-.257-.327z" transform="translate(-38.548 -17.379)"/><path d="m82.916 23.988-.261 1.757-.26-.065.26-1.758-.456-.065.065-.26 1.042.131-.065.26z" transform="translate(-39.35 -17.41)"/><path d="m83.8 25.775.456-2.019.977.2-.065.26-.651-.131-.131.521.456.131-.065.26-.456-.131-.131.651.716.131-.065.26zm1.107-2.148-.26-.065.26-.261.391.065z" transform="translate(-39.908 -17.309)"/><path d="m66.616 45.115a7.293 7.293 0 0 1 1.5-.391h.065c.26-.065.456-.065.716-.131h1.563a.392.392 0 0 1 .26.065l-.72-4.358a10.292 10.292 0 0 0 -4.1.847c.2 1.298.456 2.601.716 3.968z" fill="#d21b33" transform="translate(-33.664 -23.234)"/><path d="m68.961 43.614.978.586c-.2-.326-.326-.716-.521-1.042a7.8 7.8 0 0 0 .716-.781 5.6 5.6 0 0 0 -1.042.065 7.775 7.775 0 0 1 -.522-1.042 7.175 7.175 0 0 0 -.131 1.172c-.326.065-.716.2-1.042.26a6.573 6.573 0 0 1 .977.456 6.417 6.417 0 0 0 -.131 1.107 9.284 9.284 0 0 0 .716-.781" fill="#fff" transform="translate(-34.185 -23.621)"/><path d="m61.387 42.9c-.065-.456-.2-.912-.26-1.3-2.931 1.107-5.8 2.8-8.727 1.954.065.521.2.977.26 1.5a7.213 7.213 0 0 0 1.237.131c2.475.062 4.95-1.371 7.49-2.285z" fill="#156c52" transform="translate(-28.956 -23.691)"/><path d="m57.489 46.6c1.433-.521 2.865-1.172 4.3-1.693-.065-.456-.2-.912-.26-1.3-2.475.912-5.015 2.344-7.489 2.279a8.9 8.9 0 0 1 -1.237-.131c.065.521.2.977.26 1.5a9.663 9.663 0 0 0 4.426-.655z" fill="#ffce15" transform="translate(-29.096 -24.389)"/><path d="m57.563 48.791c1.563-.521 3.061-1.3 4.624-1.823-.065-.456-.2-.912-.26-1.368-1.433.521-2.865 1.172-4.3 1.693a8.717 8.717 0 0 1 -4.428.586c.065.456.2.977.26 1.433a8.151 8.151 0 0 0 4.104-.521z" fill="#156c52" transform="translate(-29.235 -25.086)"/><path d="m55.237 51.992h-1.237c.065.456.2.977.26 1.433 4.233.26 8.531-3.972 12.764-2.8l-.26-1.5c-3.842-.846-7.684 2.475-11.527 2.867z" fill="#156c52" transform="translate(-29.514 -26.268)"/><path d="m54.607 51.228h.456c3.842-.391 7.684-3.712 11.527-2.865l-.26-1.5a.392.392 0 0 1 -.26-.065h-1.564a2.769 2.769 0 0 0 -.716.131h-.065c-.521.131-1.042.26-1.5.391-1.563.521-3.061 1.3-4.624 1.823a9 9 0 0 1 -4.1.586c.065.521.2.977.26 1.433a1.94 1.94 0 0 0 .846.066z" fill="#ffce15" transform="translate(-29.34 -25.505)"/><path d="m89.2 45.113a7.293 7.293 0 0 0 -1.5-.391h-.064c-.26-.065-.456-.065-.716-.131h-1.56a.392.392 0 0 0 -.26.065l.716-4.363a10.292 10.292 0 0 1 4.1.847c-.2 1.3-.456 2.6-.716 3.972z" fill="#d21b33" transform="translate(-40.361 -23.231)"/><path d="m87.972 43.614-.972.586c.2-.326.326-.716.521-1.042a7.8 7.8 0 0 1 -.716-.781 5.6 5.6 0 0 1 1.042.065 7.775 7.775 0 0 0 .521-1.042 7.176 7.176 0 0 1 .131 1.172c.326.065.716.2 1.042.26a6.574 6.574 0 0 0 -.977.456 6.416 6.416 0 0 1 .126 1.112 9.281 9.281 0 0 1 -.716-.781" fill="#fff" transform="translate(-40.954 -23.621)"/><path d="m92.2 42.9c.065-.456.2-.912.26-1.3 2.93 1.107 5.8 2.8 8.726 1.954-.065.521-.2.977-.26 1.5a7.213 7.213 0 0 1 -1.237.131c-2.474.062-4.948-1.371-7.489-2.285z" fill="#156c52" transform="translate(-42.837 -23.691)"/><path d="m96.1 46.6c-1.433-.521-2.865-1.172-4.3-1.693.065-.456.2-.912.26-1.3 2.475.912 5.015 2.344 7.489 2.279a8.9 8.9 0 0 0 1.237-.131c-.065.521-.2.977-.26 1.5a9.663 9.663 0 0 1 -4.426-.655z" fill="#ffce15" transform="translate(-42.697 -24.388)"/><path d="m96.024 48.791c-1.563-.521-3.061-1.3-4.624-1.823.065-.456.2-.912.26-1.368 1.433.521 2.865 1.172 4.3 1.693a8.726 8.726 0 0 0 4.428.586c-.065.456-.2.977-.26 1.433a8.153 8.153 0 0 1 -4.104-.521z" fill="#156c52" transform="translate(-42.558 -25.086)"/><path d="m96.19 51.992h1.237c-.065.456-.2.977-.26 1.433-4.233.26-8.531-3.972-12.764-2.8l.26-1.5c3.842-.846 7.684 2.475 11.527 2.867z" fill="#156c52" transform="translate(-40.119 -26.267)"/><path d="m96.782 51.227h-.456c-3.842-.391-7.684-3.712-11.526-2.865l.26-1.5a.392.392 0 0 0 .26-.065h1.563a2.769 2.769 0 0 1 .716.131h.065c.521.131 1.042.26 1.5.391 1.563.521 3.061 1.3 4.624 1.823a9 9 0 0 0 4.1.586c-.065.521-.2.977-.26 1.433a1.94 1.94 0 0 1 -.846.066z" fill="#ffce15" transform="translate(-40.256 -25.504)"/><path d="m70.678 92.254c-.131-.26-.065-.26-.065-.521a1.353 1.353 0 0 1 0-.521c.131-.26-.131-.651-.326-.781 0 0-.716-.456-1.042-.651-.391-.2-.651-.456-.651-.716s.26-.586.26-.977-.2-.521-.131-.716c0-.2.326-.586.521-.781a1.779 1.779 0 0 0 -.2-1.758c-.2-.26-1.172-1.368-1.172-1.368a17.135 17.135 0 0 1 -1.042-1.5 1.962 1.962 0 0 1 -.26-.912c.065-.391.2-.651.456-.586a.548.548 0 0 1 .456.456c.065.131.131.2-.065.521s.131.847.131.847a.285.285 0 0 1 .2-.26s-.065.26.326.781c0 0-.131-.391.065-.456.131-.065.326.651.651 1.042s1.107.326 1.107.326-.521-.26-.716-1.823c-.131-.977-.716-.912-1.107-.912-.2-.065-.326-.391-.456-.586a.867.867 0 0 0 -.651-.521.667.667 0 0 0 -.651.391 1.667 1.667 0 0 0 -.2 1.042 3.053 3.053 0 0 0 .391 1.368 16.145 16.145 0 0 0 1.042 1.368 11.7 11.7 0 0 1 1.042 1.368.761.761 0 0 1 0 .847 1.447 1.447 0 0 1 -.912 0c-.131-.131-.586-.716-.586-.716a14.055 14.055 0 0 1 -1.3-1.628 4.53 4.53 0 0 1 0-1.889 5.978 5.978 0 0 0 -.065-2.279c.26.065.326.521.326.521a.834.834 0 0 0 0-.847c.391.326.651.131.651.131-.586-.586-.391-2.084-.391-2.084a2.651 2.651 0 0 1 .391 1.172c.586-2.476-.651-2.8-.651-2.8a2.135 2.135 0 0 1 1.046.654c-.456-2.084-1.5-2.214-2.475-2.019.326-.391 1.368-.391 1.368-.391a4.554 4.554 0 0 0 -1.954-.2c.131-.326.651-.586.651-.586a2.383 2.383 0 0 0 -1.628.716 1.007 1.007 0 0 1 .2-.521 1.833 1.833 0 0 0 -.977.651.578.578 0 0 0 .26.912 1.477 1.477 0 0 0 -.26-.065 1.429 1.429 0 0 0 -.781.325 3.98 3.98 0 0 1 -.912.456.5.5 0 0 0 0 .521c.065.065.065.065.065.2 0 .065.065.586.326.651l.26.131s-.131-.26.326-.326 1.042.26.391.651c-.2.131-.521.26-.716.065a.2.2 0 0 1 -.065-.131s-.131 0-.2.2-.065.586.2.651a2.561 2.561 0 0 0 1.172-.26.906.906 0 0 0 .651-.781s.326.326-.326.847c-.651.456-2.084.456-2.084 1.693a1.314 1.314 0 0 1 .781-.716 1.506 1.506 0 0 0 -.716 1.368 1.581 1.581 0 0 1 1.107-.912 3 3 0 0 0 -.977 2.8v.065a3.059 3.059 0 0 1 -.131-1.433c-.326 0-.521-.391-.651-.651-.2-.847-.26-.912-.586-1.107a1.977 1.977 0 0 0 -.716-.2.357.357 0 0 0 -.326.26c0 .065.26-.065.456.131a.82.82 0 0 0 -.521.065c-.065.065 0 .391 0 .391.065.065.326-.065.456 0a1.657 1.657 0 0 0 -.456.131c-.065.131 0 .326 0 .391.131.131.651-.065.716.781 0 .065.065.2.065.26a.456.456 0 0 0 .456.2c.065.131.456.651.651.977a6.463 6.463 0 0 1 -.977.2 1.247 1.247 0 0 1 -.521-.26l-.716-.391s0 .326-.2.26c-.131 0-.131-.391-.131-.391s-.391.131-.391.391c-.2 0-.26.456-.131.651-.456.586.586.781.586.781s.716.26.912.326a3.219 3.219 0 0 0 .847.26 3.538 3.538 0 0 0 .716-.131s.456-.065.716-.131c0 0 .586 0 1.3-1.433a2.136 2.136 0 0 1 -1.042 1.628 3.517 3.517 0 0 0 .521.521 4.626 4.626 0 0 0 .847.781c.326.26 1.172.586 1.368.847a1.877 1.877 0 0 1 .26.716.128.128 0 0 1 .131-.131c.131 0 .26.456.26.456s.131-.456.2-.326a1 1 0 0 1 .26.651.9.9 0 0 1 -.131.456l-.781.912c-.521.521-.651.586-.781.847a2.285 2.285 0 0 0 -.326.521 1.813 1.813 0 0 0 .131 1.107c.131.456-.065 1.3-.391 1.3-.847 0-.847-.2-1.107.065a2.573 2.573 0 0 0 -.521.781.392.392 0 0 0 .326.26c.065 0 0-.456.26-.586a.937.937 0 0 0 -.131.586.263.263 0 0 0 .326.2c0-.065 0-.391.131-.456v.441a.279.279 0 0 0 .391.065c.2-.131.326-.521 1.042-.391.391.065.456 0 .456-.2a4.611 4.611 0 0 1 .326-1.042.349.349 0 0 1 .26-.2.2.2 0 0 1 .065.131.508.508 0 0 0 0-.326.2.2 0 0 1 .131.065s0-.2-.131-.26a1.075 1.075 0 0 1 -.131-.651 2.009 2.009 0 0 1 1.823-.912 1.706 1.706 0 0 1 -.586-1.237 4.081 4.081 0 0 1 0-1.368 4.781 4.781 0 0 0 .26 1.368c.781 1.758 3.126 2.214 3.126 2.214a2.337 2.337 0 0 1 0 .716c-.2.651-.26.912-.26.912a6.478 6.478 0 0 1 -1.107-.2c-.326-.065-.651.847-.651.912a.509.509 0 0 0 .26.26c.065 0 .065-.391.326-.521 0 0-.26.326-.2.521a.26.26 0 0 0 .26.131c.065 0 0-.326.131-.456 0 0-.065.391.065.456.2.131.2.065.326 0a3.941 3.941 0 0 1 .977-.131c.26 0 .326-.586.651-1.107s.391-.912.521-.912.2.326 0 .456c.131.017.458-.179.327-.439zm-8.4-16.346c-.131.131-.716.065-.651-.2s.456-.326.651-.2c.195.205 0 .336 0 .4z" fill="#d21b33" transform="translate(-30.563 -34.75)"/><path d="m59.091 84.3-.391 1.758.065.065z" transform="translate(-31.154 -38.584)"/><path d="m60.3 85.831c-.065 0-.131-.065-.2-.131l.065 1.3h.2z" transform="translate(-31.642 -39.072)"/><path d="m57.984 81.832v.131c0 .065.065.391.131.391.2.065.2-.2.2-.26v-.394a15.15 15.15 0 0 1 .912-6.056l.131 2.735-.131.716h.065l.065-.326v.331c.065 0 .131.065.2.065l-.065-1.107.781-3.647.326-.326-.131-.781-.468.648.2.391-.716 3.321-.2-2.475a1.671 1.671 0 0 1 -.131-.326c-.065-.065-.26-.131-.326-.065s0 .26.065.326a.909.909 0 0 0 .326.26 11.588 11.588 0 0 0 -1.234 6.448z" transform="translate(-30.893 -34.748)"/><path d="m59.6 89.956.131 3.126a15.734 15.734 0 0 1 -1.108-3.451c-.131-.065-.26-.065-.326-.131a8.539 8.539 0 0 0 1.433 3.777l-.26.391c-.131.2-.131.26-.065.326s.2 0 .326-.2a.776.776 0 0 0 .131-.391l-.131-3.386c.002-.061-.063-.061-.131-.061z" transform="translate(-31.014 -40.397)"/><path d="m80.6 92.562c-.2-.131-.131-.456 0-.456s.2.391.521.912.391 1.107.651 1.107a3.942 3.942 0 0 1 .977.131c.131.065.131.131.326 0s.065-.456.065-.456c.131.131.065.456.131.456a.26.26 0 0 0 .26-.131c.065-.2-.2-.521-.2-.521.26.131.26.521.326.521s.26-.131.26-.26c0-.065-.326-.977-.651-.912a6.476 6.476 0 0 1 -1.107.2 4.071 4.071 0 0 1 -.26-.912 2.337 2.337 0 0 1 0-.716s2.344-.456 3.126-2.214a3.589 3.589 0 0 0 .326-1.368 4.072 4.072 0 0 1 .065 1.107 1.709 1.709 0 0 1 -.586 1.237 2.155 2.155 0 0 1 1.823.912.8.8 0 0 1 -.131.651c-.131.065-.131.26-.131.26a.2.2 0 0 1 .131-.065.509.509 0 0 0 0 .326s0-.131.065-.131c.065-.065.131 0 .26.2a3.035 3.035 0 0 1 .326 1.042c0 .2.131.26.456.2a1.117 1.117 0 0 1 1.042.391c.2.13.326.065.391-.065a1.028 1.028 0 0 0 0-.456c.131.065.065.456.131.456 0 .065.26.065.326-.2a.937.937 0 0 0 -.131-.586c.26.131.2.586.26.586a.392.392 0 0 0 .326-.26 1.976 1.976 0 0 0 -.521-.781c-.261-.26-.26-.065-1.107-.065-.326 0-.521-.781-.391-1.3a2.546 2.546 0 0 0 .131-1.107 1.027 1.027 0 0 0 -.326-.521c-.131-.2-.26-.26-.781-.847l-.779-.927a.9.9 0 0 1 -.131-.456 1 1 0 0 1 .26-.651c.131-.131.2.326.2.326s.131-.456.26-.456a.128.128 0 0 1 .131.131s.131-.391.26-.716c.131-.26 1.042-.586 1.368-.847a9.247 9.247 0 0 0 .846-.782 3.516 3.516 0 0 1 .521-.521 1.952 1.952 0 0 1 -1.047-1.628c.716 1.433 1.3 1.433 1.3 1.433a2.717 2.717 0 0 1 .716.131 3.538 3.538 0 0 0 .716.131 3.23 3.23 0 0 0 .847-.26c.2-.065.912-.326.912-.326s1.042-.2.586-.781c.131-.2.065-.651-.131-.651 0-.26-.391-.391-.391-.391s0 .391-.131.391c-.2.065-.2-.26-.2-.26l-.716.391a1.247 1.247 0 0 1 -.521.26 6.464 6.464 0 0 1 -.977-.2c.2-.326.651-.912.651-.977s.26 0 .456-.2c.065-.065.065-.131.065-.26.065-.781.586-.586.716-.781a.41.41 0 0 0 0-.391 1.656 1.656 0 0 0 -.456-.131.969.969 0 0 1 .456 0 .747.747 0 0 0 0-.391 2.439 2.439 0 0 0 -.521-.065c.2-.2.456-.065.521-.131a.357.357 0 0 0 -.326-.26 1.184 1.184 0 0 0 -.716.2c-.326.131-.326.26-.586 1.107-.131.326-.326.651-.651.651a3.043 3.043 0 0 1 -.131 1.433v-.066a2.944 2.944 0 0 0 -.977-2.8 1.349 1.349 0 0 1 1.107.912 1.535 1.535 0 0 0 -.716-1.368 1.108 1.108 0 0 1 .781.716c0-1.237-1.433-1.237-2.084-1.693s-.326-.847-.326-.847c0 .391.391.586.651.781a2.546 2.546 0 0 0 1.172.26c.261-.065.26-.456.2-.651s-.2-.2-.2-.2a.2.2 0 0 1 -.065.131c-.2.26-.521.065-.716-.065-.586-.391 0-.716.391-.651.456.065.326.326.326.326l.26-.131c.26-.131.326-.586.326-.651s0-.065.065-.2a.5.5 0 0 0 0-.521c-.131-.131-.716-.326-.912-.456a1.429 1.429 0 0 0 -.781-.326 1.477 1.477 0 0 0 -.26.065.658.658 0 0 0 .26-.912 1.833 1.833 0 0 0 -.977-.651 1.572 1.572 0 0 1 .2.521 2.71 2.71 0 0 0 -1.628-.716s.521.26.651.586a4.385 4.385 0 0 0 -1.954.2s1.042-.065 1.368.391c-.912-.26-2.019-.131-2.475 2.019a2.135 2.135 0 0 1 1.042-.651s-1.3.326-.651 2.8a2.218 2.218 0 0 1 .391-1.172s.2 1.5-.391 2.084c0 0 .26.2.651-.131a.834.834 0 0 0 0 .847s.065-.456.326-.521a5.978 5.978 0 0 0 -.065 2.279 4.548 4.548 0 0 1 0 1.889 14.115 14.115 0 0 1 -1.3 1.628 4.042 4.042 0 0 1 -.586.716c-.131.131-.781.2-.912 0-.2-.131-.26-.456 0-.847a11.7 11.7 0 0 1 1.042-1.368 16.146 16.146 0 0 0 1.042-1.368 2.824 2.824 0 0 0 .391-1.368 1.666 1.666 0 0 0 -.2-1.042.667.667 0 0 0 -.651-.391.865.865 0 0 0 -.651.521c-.13.261-.26.586-.456.586-.391 0-.977-.065-1.107.912-.2 1.563-.716 1.823-.716 1.823s.781.065 1.107-.326.521-1.107.651-1.042c.2.065.065.456.065.456.391-.521.326-.781.326-.781a.285.285 0 0 1 .2.26s.326-.521.131-.847a.82.82 0 0 1 -.065-.521.643.643 0 0 1 .456-.456c.26 0 .391.2.456.586a1.319 1.319 0 0 1 -.26.912 17.136 17.136 0 0 1 -1.042 1.5s-.977 1.107-1.172 1.368a1.625 1.625 0 0 0 -.2 1.758 2.725 2.725 0 0 1 .522.784 4.848 4.848 0 0 0 -.131.716c0 .391.26.716.26.977s-.26.455-.651.717-1.042.651-1.042.651c-.2.131-.456.521-.326.781a1.354 1.354 0 0 1 0 .521c0 .26.065.26-.065.521-.191.531.138.726.138.726zm8.2-17.192c.2-.131.586-.131.651.2.065.26-.521.326-.651.2a.237.237 0 0 1 0-.391z" fill="#d21b33" transform="translate(-38.723 -34.603)"/><path d="m99.286 84.3.391 1.693-.131.065z" transform="translate(-45.43 -38.583)"/><path d="m97.865 85.831c.065 0 .131-.065.2-.131l-.065 1.3h-.2z" transform="translate(-44.79 -39.072)"/><path d="m99 81.831v.131c0 .065-.065.391-.131.391-.2.065-.2-.2-.2-.26v-.393a15.15 15.15 0 0 0 -.912-6.056l-.131 2.735.131.716h-.057l-.065-.326v.331c-.065 0-.131.065-.2.065l.065-1.107-.781-3.647-.326-.326.131-.781.456.651-.131.456.716 3.321.131-2.541a1.673 1.673 0 0 0 .131-.326c.065-.065.26-.131.326-.065s0 .26-.065.326a.909.909 0 0 1 -.326.26 11.594 11.594 0 0 1 1.238 6.445z" transform="translate(-44.302 -34.747)"/><path d="m97.858 89.956-.131 3.126a15.734 15.734 0 0 0 1.108-3.451c.131-.065.26-.065.326-.131a8.539 8.539 0 0 1 -1.433 3.777l.26.391c.131.2.131.26.065.326s-.2 0-.326-.2a.776.776 0 0 1 -.131-.391l.131-3.386c.001-.061.066-.061.131-.061z" transform="translate(-44.718 -40.397)"/></svg>