<svg height="73" viewBox="0 0 78 73" width="78" xmlns="http://www.w3.org/2000/svg"><g fill="#2196f3"><path d="m3.062 16.235a2.067 2.067 0 0 1 -1.376-3.613 30.052 30.052 0 0 1 25.714-7.082 2.069 2.069 0 0 1 -.764 4.068 25.85 25.85 0 0 0 -22.2 6.106 2.063 2.063 0 0 1 -1.376.521z" transform="translate(1.79 8.795)"/><path d="m2.05 22.736a2.067 2.067 0 0 1 -1.7-3.24 28.067 28.067 0 0 1 23.092-12.211 26.126 26.126 0 0 1 6.271.731 2.068 2.068 0 1 1 -.99 4.015 22.011 22.011 0 0 0 -5.281-.609 23.934 23.934 0 0 0 -19.685 10.418 2.064 2.064 0 0 1 -1.707.9z" transform="translate(.016 12.806)"/><path d="m13.224 45.36a2.055 2.055 0 0 1 -1.451-.6c-.367-.359-8.932-8.907-8.932-17.208a15.579 15.579 0 1 1 31.157 0 2.068 2.068 0 0 1 -4.137 0 11.442 11.442 0 1 0 -22.884 0c0 6.566 7.625 14.191 7.7 14.266a2.067 2.067 0 0 1 -1.456 3.538z" transform="translate(5.039 20.826)"/><path d="m7.164 46.317a2.064 2.064 0 0 1 -1.6-.764 21.952 21.952 0 0 1 -4.988-13.985 22.177 22.177 0 0 1 6.972-16.121 21.617 21.617 0 0 1 16.3-5.838 20.641 20.641 0 0 1 8.759 2.591 2.069 2.069 0 1 1 -2.016 3.613 16.519 16.519 0 0 0 -7.018-2.074 17.355 17.355 0 0 0 -13.2 4.727 17.985 17.985 0 0 0 -1.608 24.48 2.068 2.068 0 0 1 -1.6 3.373z" transform="translate(1.058 16.814)"/><path d="m19.609 42.936c-4.073 0-13.516-7.559-14.431-15.973a10.621 10.621 0 0 1 2.576-8.215 8.9 8.9 0 0 1 6.635-3.031h.061a9.2 9.2 0 0 1 6.53 2.7 9.391 9.391 0 0 1 2.785 6.715v1.045a4.2 4.2 0 0 0 4.161 4.233 4.055 4.055 0 0 0 2.929-1.224 4.136 4.136 0 0 0 1.258-3.006v-.347a19.1 19.1 0 0 0 -2.446-9.36 2.029 2.029 0 0 1 -.375-1.178 2.057 2.057 0 0 1 2.055-2.068h.028a2.06 2.06 0 0 1 1.79 1.034 23.215 23.215 0 0 1 3.081 11.569v.347a8.211 8.211 0 0 1 -2.468 5.929 8.126 8.126 0 0 1 -5.857 2.441 8.343 8.343 0 0 1 -8.3-8.37v-1.045a5.291 5.291 0 0 0 -1.561-3.781 5.411 5.411 0 0 0 -3.654-1.495 4.75 4.75 0 0 0 -3.577 1.652 6.567 6.567 0 0 0 -1.547 5.016c.727 6.608 8.618 12.276 10.327 12.276a2.068 2.068 0 1 1 0 4.137z" transform="translate(9.037 23.25)"/><path d="m21.195 34.189c-6.117 0-13.5-7.007-13.5-15.708a2.068 2.068 0 1 1 4.137 0c0 6.387 5.667 11.571 9.365 11.571a2.068 2.068 0 1 1 0 4.137z" transform="translate(13.568 28.85)"/></g><path d="m43.692 5.036-14.478-4.925a2.041 2.041 0 0 0 -1.332 0l-14.482 4.925a2.066 2.066 0 0 0 -1.4 1.958v11.081c0 13.524 15.1 20.1 15.738 20.371a2.093 2.093 0 0 0 .808.163 2.047 2.047 0 0 0 .808-.165c.646-.274 15.739-6.844 15.739-20.369v-11.081a2.067 2.067 0 0 0 -1.4-1.958zm-5.907 9.3-8.273 11.036a2.062 2.062 0 0 1 -1.512.822 1.3 1.3 0 0 1 -.146.006 2.069 2.069 0 0 1 -1.462-.607l-5.512-5.516a2.069 2.069 0 0 1 2.926-2.926l3.83 3.83 6.839-9.123a2.068 2.068 0 1 1 3.309 2.482z" fill="#4caf50" transform="translate(21.138)"/><text font-family="Poppins-Bold, Poppins" font-size="28" font-weight="700" transform="translate(58 63)"><tspan x="-19.138" y="0">.tg</tspan></text></svg>