<svg height="53.908" viewBox="0 0 63.329 53.908" width="63.329" xmlns="http://www.w3.org/2000/svg"><path d="m22.354 22.354h48.162v48.162h-48.162z" fill="#ededed" transform="translate(-22.354 -22.354)"/><path d="m27.879 27.492h8.637v8.637h-8.637z" fill="#344d5b" transform="translate(-23.803 -23.702)"/><path d="m31.071 30.684h3.929v3.927h-3.929z" fill="#ededed" transform="translate(-24.641 -24.539)"/><path d="m69.868 27.492h8.632v8.637h-8.632z" fill="#344d5b" transform="translate(-34.819 -23.702)"/><path d="m73.06 30.684h3.927v3.927h-3.927z" fill="#ededed" transform="translate(-35.657 -24.539)"/><path d="m27.879 70.657h8.637v8.637h-8.637z" fill="#344d5b" transform="translate(-23.803 -35.027)"/><path d="m31.071 73.849h3.929v3.927h-3.929z" fill="#ededed" transform="translate(-24.641 -35.864)"/><path d="m69.868 70.657h8.632v8.637h-8.632z" fill="#344d5b" transform="translate(-34.819 -35.027)"/><path d="m73.06 73.849h3.927v3.927h-3.927z" fill="#ededed" transform="translate(-35.657 -35.864)"/><g fill="#344d5b"><path d="m42.915 36.008h1.99v4.819h-1.99z" transform="translate(-27.748 -25.936)"/><path d="m55 42.528h2.843v4.819h-2.843z" transform="translate(-30.918 -27.646)"/><path d="m64.049 27.417h1.99v4.819h-1.99z" transform="translate(-33.293 -23.682)"/><path d="m39.587 52.982h1.99v4.818h-1.99z" transform="translate(-26.875 -30.389)"/><path d="m48.7 65.183h1.99v4.817h-1.99z" transform="translate(-29.265 -33.59)"/><path d="m78.674 41.767h1.99v4.819h-1.99z" transform="translate(-37.13 -27.447)"/><path d="m79.285 58.233h1.99v4.819h-1.99z" transform="translate(-37.29 -31.767)"/><path d="m27.879 45.795h2.9v4.819h-2.9z" transform="translate(-23.803 -28.503)"/><path d="m31.071 51.185h2.9v4.815h-2.9z" transform="translate(-24.64 -29.918)"/><path d="m42.915 45.795h1.99v2.651h-1.99z" transform="translate(-27.748 -28.503)"/><path d="m35.5 41.862h2.651v2.651h-2.651z" transform="translate(-25.802 -27.472)"/><path d="m55.572 27.373h2.651v2.651h-2.651z" transform="translate(-31.068 -23.67)"/><path d="m49.339 41.862h1.99v2.651h-1.99z" transform="translate(-29.433 -27.472)"/><path d="m61.852 39.971h1.99v2.651h-1.99z" transform="translate(-32.716 -26.975)"/><path d="m53.651 33.346h1.99v2.654h-1.99z" transform="translate(-30.565 -25.237)"/><path d="m61.351 33.346h1.99v2.654h-1.99z" transform="translate(-32.585 -25.237)"/><path d="m75.976 46.5h1.99v2.651h-1.99z" transform="translate(-36.422 -28.689)"/><path d="m0 0h1.99v2.651h-1.99z" transform="matrix(0 1 -1 0 37.733 14.97)"/><path d="m0 0h1.99v2.651h-1.99z" transform="matrix(0 1 -1 0 35.048 16.819)"/><path d="m0 0h1.99v2.651h-1.99z" transform="matrix(0 1 -1 0 41.875 31.007)"/><path d="m0 0h4.356v2.651h-4.356z" transform="matrix(0 1 -1 0 42.656 22.11)"/><path d="m0 0h1.99v2.651h-1.99z" transform="matrix(0 1 -1 0 38.148 24.476)"/><path d="m47.99 27.09h1.99v2.651h-1.99z" transform="translate(-29.079 -23.596)"/><path d="m45.292 49.388h1.99v2.651h-1.99z" transform="translate(-28.371 -29.446)"/><path d="m47.99 52.655h1.99v2.651h-1.99z" transform="translate(-29.079 -30.303)"/><path d="m63.2 79.174h1.99v2.651h-1.99z" transform="translate(-33.07 -37.261)"/><path d="m53.087 79.174h2.832v2.651h-2.832z" transform="translate(-30.417 -37.261)"/><path d="m42.889 67.11h1.99v2.651h-1.99z" transform="translate(-27.741 -34.096)"/><path d="m50.146 46.781h3.581v2.651h-3.581z" transform="translate(-29.645 -28.762)"/><path d="m52.3 55.535h4.685v4.733h-4.685z" transform="translate(-30.211 -31.059)"/><path d="m42.116 57.857h3.458v3.493h-3.458z" transform="translate(-27.538 -31.668)"/><path d="m66.738 51.792h3.034v3.065h-3.034z" transform="translate(-33.998 -30.077)"/><path d="m58.653 48.734h1.99v2.651h-1.99z" transform="translate(-31.877 -29.274)"/><path d="m60.5 66.3h1.99v7.532h-1.99z" transform="translate(-32.362 -33.883)"/><path d="m66.722 61.951h1.99v2.649h-1.99z" transform="translate(-33.994 -32.742)"/><path d="m64.04 55.087h1.99v2.651h-1.99z" transform="translate(-33.29 -30.941)"/><path d="m61.852 58.233h1.99v2.651h-1.99z" transform="translate(-32.716 -31.767)"/><path d="m58.008 61.065h3.311v2.651h-3.311z" transform="translate(-31.708 -32.51)"/><path d="m36.4 62.592h1.99v2.651h-1.99z" transform="translate(-26.037 -32.91)"/><path d="m57.8 73.849h1.99v2.651h-1.99z" transform="translate(-31.654 -35.864)"/><path d="m46.641 76.822h1.99v2.651h-1.99z" transform="translate(-28.725 -36.644)"/><path d="m44.264 73.547h1.99v2.653h-1.99z" transform="translate(-28.102 -35.784)"/><path d="m53.156 67.11h1.99v2.651h-1.99z" transform="translate(-30.435 -34.096)"/><path d="m0 0h1.99v2.651h-1.99z" transform="matrix(0 1 -1 0 8.209 31.752)"/></g><path d="m0 0h6.358v6.9h-6.358z" fill="#a4c9ff" transform="matrix(-.70710678 -.70710678 .70710678 -.70710678 53.63290101202 16.05355391658)"/><path d="m12.169 0h-11.622a.547.547 0 0 0 -.547.547v1.453a.547.547 0 0 0 .547.547h11.622a.547.547 0 0 0 .547-.547v-1.453a.547.547 0 0 0 -.547-.547z" fill="#4671c6" transform="matrix(-.70710678 -.70710678 .70710678 -.70710678 60.75841603408 13.42382380176)"/><path d="m0 .274v28.177h1.877v-26.96l-1.41-1.41a.273.273 0 0 0 -.467.193z" fill="#4671c6" transform="matrix(-.70710678 -.70710678 .70710678 -.70710678 12.61010117032 53.90710117032)"/><path d="m10.808 37.511h-10.808v-35.871a1.64 1.64 0 0 1 1.64-1.64h7.528a1.64 1.64 0 0 1 1.64 1.64z" fill="#e0ebfc" transform="matrix(-.70710678 -.70710678 .70710678 -.70710678 27.6332918182 45.1997882814)"/><path d="m0 0h32.133v7.653h-32.133z" fill="#a4c9ff" transform="matrix(.70710678 -.70710678 .70710678 .70710678 22.6800088243 37.0998801165)"/><path d="m6.9 7.991h-6.353a.547.547 0 0 1 -.547-.547v-6.897a.547.547 0 0 1 .547-.547h6.353a.547.547 0 0 1 .547.547v6.9a.547.547 0 0 1 -.547.544zm-5.807-1.091h5.265v-5.8h-5.265z" fill="#3762cc" transform="matrix(-.70710678 -.70710678 .70710678 -.70710678 53.6336081188 16.82642162712)"/><path d="m12.716 3.636h-11.623a1.094 1.094 0 0 1 -1.093-1.093v-1.45a1.094 1.094 0 0 1 1.093-1.093h11.623a1.094 1.094 0 0 1 1.093 1.093v1.45a1.094 1.094 0 0 1 -1.093 1.093zm-11.623-2.543v1.45h11.623v-1.45z" fill="#3762cc" transform="matrix(-.70710678 -.70710678 .70710678 -.70710678 60.75841603408 14.19739861908)"/><path d="m11.355 38.6h-10.808a.547.547 0 0 1 -.547-.543v-35.87a2.189 2.189 0 0 1 2.187-2.187h7.528a2.189 2.189 0 0 1 2.185 2.187v35.87a.547.547 0 0 1 -.545.543zm-10.262-1.089h9.715v-35.324a1.094 1.094 0 0 0 -1.093-1.094h-7.528a1.094 1.094 0 0 0 -1.094 1.094z" fill="#3762cc" transform="matrix(-.70710678 -.70710678 .70710678 -.70710678 27.6332918182 45.97336309872)"/><path d="m15.074 0h-14.254a.82.82 0 0 0 -.82.82v.9a.82.82 0 0 0 .82.82h14.254a.82.82 0 0 0 .82-.82v-.9a.82.82 0 0 0 -.82-.82z" fill="#4671c6" transform="matrix(-.70710678 -.70710678 .70710678 -.70710678 55.20621359752 21.22321158516)"/><path d="m15.621 3.636h-14.254a1.368 1.368 0 0 1 -1.367-1.366v-.9a1.368 1.368 0 0 1 1.367-1.37h14.254a1.368 1.368 0 0 1 1.367 1.367v.9a1.368 1.368 0 0 1 -1.367 1.369zm-14.254-2.543a.274.274 0 0 0 -.273.273v.9a.274.274 0 0 0 .273.273h14.254a.274.274 0 0 0 .273-.273v-.9a.274.274 0 0 0 -.273-.273z" fill="#3762cc" transform="matrix(-.70710678 -.70710678 .70710678 -.70710678 55.20621359752 21.99678640248)"/><path d="m4.061 1.093h-3.514a.547.547 0 1 1 0-1.093h3.514a.547.547 0 1 1 0 1.093z" fill="#3762cc" transform="matrix(-.70710678 -.70710678 .70710678 -.70710678 31.61642430994 41.99023060698)"/><path d="m4.061 1.093h-3.514a.547.547 0 1 1 0-1.093h3.514a.547.547 0 1 1 0 1.093z" fill="#3762cc" transform="matrix(-.70710678 -.70710678 .70710678 -.70710678 35.4821770762 38.12447784072)"/><path d="m4.061 1.093h-3.514a.547.547 0 1 1 0-1.093h3.514a.547.547 0 1 1 0 1.093z" fill="#3762cc" transform="matrix(-.70710678 -.70710678 .70710678 -.70710678 39.34792984246 34.25872507446)"/><path d="m4.061 1.093h-3.514a.547.547 0 1 1 0-1.093h3.514a.547.547 0 1 1 0 1.093z" fill="#3762cc" transform="matrix(-.70710678 -.70710678 .70710678 -.70710678 43.21368260872 30.3929723082)"/><path d="m4.061 1.093h-3.514a.547.547 0 1 1 0-1.093h3.514a.547.547 0 1 1 0 1.093z" fill="#3762cc" transform="matrix(-.70710678 -.70710678 .70710678 -.70710678 47.0787282682 26.52792664872)"/><path d="m4.061 1.093h-3.514a.547.547 0 1 1 0-1.093h3.514a.547.547 0 1 1 0 1.093z" fill="#3762cc" transform="matrix(-.70710678 -.70710678 .70710678 -.70710678 50.94448103446 22.66217388246)"/></svg>