<svg height="81.057" viewBox="0 0 81 81.057" width="81" xmlns="http://www.w3.org/2000/svg"><g transform="translate(-108.5)"><path d="m345.5 42.249v54.936l-9.5 4.749v-64.434z" fill="#06f5dd" transform="translate(-191.483 -31.563)"/><path d="m155.579 37.5v64.434l-39.579-4.749v-54.936z" fill="#8cfff3" transform="translate(-6.313 -31.563)"/><path d="m340.749 414.5-4.749 14.248h4.749a4.763 4.763 0 0 0 4.751-4.748v-9.5z" fill="#bfbfbf" transform="translate(-191.483 -348.879)"/><path d="m340.749 7.5h-4.749l4.749 9.5h4.751v-4.751a4.763 4.763 0 0 0 -4.751-4.749z" fill="#bfbfbf" transform="translate(-191.483 -6.313)"/><path d="m155.579 414.5v9.5a4.763 4.763 0 0 1 -4.749 4.749h-30.08a4.763 4.763 0 0 1 -4.75-4.749v-9.5z" fill="#dbdbdb" transform="translate(-6.313 -348.879)"/><path d="m155.579 12.249v4.751h-39.579v-4.751a4.763 4.763 0 0 1 4.749-4.749h30.08a4.763 4.763 0 0 1 4.75 4.749z" fill="#dbdbdb" transform="translate(-6.313 -6.313)"/><circle cx="131.852" cy="72.746" fill="#fff" r="2.375"/><path d="m149.266 0h-34.829a5.943 5.943 0 0 0 -5.937 5.937v69.184a5.943 5.943 0 0 0 5.937 5.937h34.829a5.943 5.943 0 0 0 5.937-5.937v-69.184a5.943 5.943 0 0 0 -5.937-5.937zm-34.829 2.375h34.829a3.566 3.566 0 0 1 3.562 3.562v3.563h-41.953v-3.563a3.566 3.566 0 0 1 3.562-3.562zm34.829 76.308h-34.829a3.566 3.566 0 0 1 -3.562-3.562v-8.312h3.562a1.187 1.187 0 1 0 0-2.375h-3.562v-52.56h41.954v52.56h-33.643a1.187 1.187 0 0 0 0 2.375h33.642v8.312a3.566 3.566 0 0 1 -3.562 3.562z"/><path d="m249.687 32.375h4.749a1.187 1.187 0 0 0 0-2.375h-4.749a1.187 1.187 0 1 0 0 2.375z" transform="translate(-117.836 -25.251)"/><path d="m237.062 437a3.562 3.562 0 1 0 3.562 3.562 3.566 3.566 0 0 0 -3.562-3.562zm0 4.749a1.187 1.187 0 1 1 1.187-1.187 1.189 1.189 0 0 1 -1.187 1.187z" transform="translate(-105.211 -367.816)"/><ellipse cx="127.113" cy="5.935" rx="1.185" ry=".948"/></g><g transform="translate(-44 -60)"><g fill="#dbdbdb" stroke="#266486" stroke-width="2"><rect height="23" rx="5" stroke="none" width="68" x="57" y="83"/><rect fill="none" height="21" rx="4" width="66" x="58" y="84"/></g><text font-family="Poppins-Bold, Poppins" font-size="15" font-weight="700" transform="translate(67 103)"><tspan x="0" y="0">******</tspan></text></g></svg>