<svg height="146.817" viewBox="0 0 146.817 146.817" width="146.817" xmlns="http://www.w3.org/2000/svg"><path d="m146.817 6v121.5a10.125 10.125 0 0 1 -10.125 10.125h-126.567a10.125 10.125 0 0 1 -10.125-10.125v-121.5z" fill="#ecf0f1" transform="translate(0 9.188)"/><path d="m146.817 6v121.5a10.125 10.125 0 0 1 -10.125 10.125h-126.567a10.125 10.125 0 0 1 -10.125-10.125v-121.5z" fill="#b0d3f0" transform="translate(0 9.188)"/><path d="m146.817 10.125v10.126h-146.817v-10.126a10.125 10.125 0 0 1 10.125-10.125h126.567a10.125 10.125 0 0 1 10.125 10.125z" fill="#56595e"/><path d="m5.551 8.063a2.531 2.531 0 1 1 2.532-2.532 2.531 2.531 0 0 1 -2.532 2.532z" fill="#e64c3c" transform="translate(4.625 4.594)"/><path d="m9.551 8.063a2.531 2.531 0 1 1 2.531-2.531 2.531 2.531 0 0 1 -2.531 2.531z" fill="#f0c419" transform="translate(10.75 4.594)"/><path d="m13.551 8.063a2.531 2.531 0 1 1 2.531-2.531 2.531 2.531 0 0 1 -2.531 2.531z" fill="#24ae5f" transform="translate(16.875 4.594)"/><path d="m54.531 12.125a2.531 2.531 0 0 1 -2.531-2.531v-5.063a2.531 2.531 0 0 1 5.063 0v5.063a2.531 2.531 0 0 1 -2.532 2.531z" fill="#bdc3c7" transform="translate(79.629 3.063)"/><path d="m52 4h5.063" fill="#bdc3c7" transform="translate(79.629 6.125)"/><path d="m58.594 8.063h-5.063a2.531 2.531 0 0 1 0-5.063h5.063a2.531 2.531 0 1 1 0 5.063z" fill="#bdc3c7" transform="translate(78.098 4.594)"/><path d="m46 4h5.063" fill="#bdc3c7" transform="translate(70.441 6.125)"/><path d="m52.594 8.063h-5.063a2.531 2.531 0 1 1 0-5.063h5.063a2.531 2.531 0 1 1 0 5.063z" fill="#bdc3c7" transform="translate(68.91 4.594)"/><rect fill="#2980ba" height="15.587" rx="1" width="76.738" x="12.258" y="32.641"/><path d="m80.94 27.063h-73.409a2.531 2.531 0 1 1 0-5.063h73.409a2.531 2.531 0 1 1 0 5.063z" fill="#3b97d3" transform="translate(7.657 33.689)"/><path d="m73.346 31.063h-65.815a2.531 2.531 0 0 1 0-5.063h65.815a2.531 2.531 0 1 1 0 5.063z" fill="#3b97d3" transform="translate(7.657 39.814)"/><path d="m68.283 35.063h-60.752a2.531 2.531 0 0 1 0-5.063h60.752a2.531 2.531 0 1 1 0 5.063z" fill="#3b97d3" transform="translate(7.657 45.94)"/><path d="m63.22 39.063h-55.689a2.531 2.531 0 0 1 0-5.063h55.689a2.531 2.531 0 0 1 0 5.063z" fill="#3b97d3" transform="translate(7.657 52.065)"/><path d="m73.675 40h-66.144a2.531 2.531 0 0 0 -2.531 2.531v30.376a2.531 2.531 0 0 0 2.531 2.531h116.441a2.531 2.531 0 0 0 2.531-2.531v-30.376a2.531 2.531 0 0 0 -2.531-2.531h-27.389" fill="#3b97d3" transform="translate(7.657 61.253)"/><path d="m50.777 50.577-15.947 13.543a2.531 2.531 0 0 1 -4.151-2.2l2.2-20.807c10.216 1.719 10.024 1.24 17.9 9.467z" fill="#f9eab0" transform="translate(46.957 62.953)"/><path d="m67.738 25.539-26.047 49.209c-2.85-1.5-4.837-1.612-10.151-2.506l27.26-51.462z" fill="#f3d55b" transform="translate(48.298 31.821)"/><path d="m70.533 27.394-27.233 51.436a30.814 30.814 0 0 0 -7.746-6.961l26.046-49.209z" fill="#f0c419" transform="translate(54.439 34.7)"/><path d="m65.62 26.518-3.544 6.708-17.9-9.467 3.544-6.708a7.594 7.594 0 0 1 10.28-3.165l4.455 2.354a7.594 7.594 0 0 1 3.165 10.278z" fill="#d75e72" transform="translate(67.654 19.907)"/><path d="m64.94 26.717-4.759 8.961c-10.725-5.678-6.619-3.501-17.871-9.492l4.734-8.936z" fill="#bdc3c7" transform="translate(64.79 26.415)"/><g fill="#9fc9d3"><path d="m14.594 54.063h-5.063a2.531 2.531 0 1 1 0-5.063h5.063a2.531 2.531 0 1 1 0 5.063z" transform="translate(10.719 75.035)"/><path d="m20.594 54.063h-5.063a2.531 2.531 0 1 1 0-5.063h5.063a2.531 2.531 0 1 1 0 5.063z" transform="translate(19.907 75.035)"/><path d="m26.594 54.063h-5.063a2.531 2.531 0 1 1 0-5.063h5.063a2.531 2.531 0 1 1 0 5.063z" transform="translate(29.095 75.035)"/><path d="m30.063 54.063h-2.532a2.531 2.531 0 1 1 0-5.063h2.531a2.531 2.531 0 1 1 0 5.063z" transform="translate(38.283 75.035)"/><path d="m41.063 54.063h-2.532a2.531 2.531 0 1 1 0-5.063h2.531a2.531 2.531 0 1 1 0 5.063z" transform="translate(55.127 75.035)"/><path d="m48.594 54.063h-5.063a2.531 2.531 0 1 1 0-5.063h5.063a2.531 2.531 0 0 1 0 5.063z" transform="translate(62.784 75.035)"/><path d="m54.594 54.063h-5.063a2.531 2.531 0 1 1 0-5.063h5.063a2.531 2.531 0 0 1 0 5.063z" transform="translate(71.972 75.035)"/></g></svg>