<svg height="171.049" viewBox="0 0 286.59 171.049" width="286.59" xmlns="http://www.w3.org/2000/svg"><g transform="matrix(.70710678 .70710678 -.70710678 .70710678 60.324 11.49)"><path d="m7.756 0h108.578a7.756 7.756 0 0 1 7.756 7.756v69.8a7.756 7.756 0 0 1 -7.756 7.756h-108.578a7.756 7.756 0 0 1 -7.756-7.756v-69.8a7.756 7.756 0 0 1 7.756-7.756zm0 0" fill="#82b1ff"/><path d="m99.145 53.572a13.572 13.572 0 1 1 -13.573-13.572 13.572 13.572 0 0 1 13.573 13.572zm0 0" fill="#e4edfb" transform="translate(-54.55 -30.305)"/><path d="m78.534 215.267h-46.534v-11.634a11.634 11.634 0 0 1 11.633-11.633h23.267a11.634 11.634 0 0 1 11.633 11.633zm0 0" fill="#e4edfb" transform="translate(-24.244 -145.466)"/><g fill="#448aff"><path d="m259.878 64h46.534a3.878 3.878 0 0 1 0 7.756h-46.534a3.878 3.878 0 1 1 0-7.756zm0 0" transform="translate(-193.955 -48.489)"/><path d="m259.878 128h7.756a3.878 3.878 0 1 1 0 7.756h-7.756a3.878 3.878 0 0 1 0-7.756zm0 0" transform="translate(-193.955 -96.978)"/><path d="m355.878 128h23.267a3.878 3.878 0 0 1 0 7.756h-23.267a3.878 3.878 0 0 1 0-7.756zm0 0" transform="translate(-266.688 -96.978)"/><path d="m259.878 192h7.756a3.878 3.878 0 1 1 0 7.756h-7.756a3.878 3.878 0 0 1 0-7.756zm0 0" transform="translate(-193.955 -145.467)"/><path d="m355.878 192h23.267a3.878 3.878 0 0 1 0 7.756h-23.267a3.878 3.878 0 0 1 0-7.756zm0 0" transform="translate(-266.688 -145.467)"/></g><path d="m384 256h7.756v7.756h-7.756zm0 0" fill="#fff" transform="translate(-290.933 -193.955)"/><path d="m320 256h7.756v7.756h-7.756zm0 0" fill="#fff" transform="translate(-242.444 -193.955)"/><path d="m256 256h7.756v7.756h-7.756zm0 0" fill="#fff" transform="translate(-193.955 -193.955)"/></g><g transform="matrix(.8660254 .5 -.5 .8660254 198.771 16.265)"><path d="m101.4 6v83.921a6.993 6.993 0 0 1 -6.993 6.993h-87.414a6.993 6.993 0 0 1 -6.993-6.993v-83.921z" fill="#ecf0f1" transform="translate(0 4.49)"/><path d="m101.4 6v83.921a6.993 6.993 0 0 1 -6.993 6.993h-87.414a6.993 6.993 0 0 1 -6.993-6.993v-83.921z" fill="#b0d3f0" transform="translate(0 4.49)"/><path d="m101.4 6.993v6.993h-101.4v-6.993a6.993 6.993 0 0 1 6.993-6.993h87.418a6.993 6.993 0 0 1 6.989 6.993z" fill="#56595e"/><path d="m4.768 6.5a1.748 1.748 0 1 1 1.749-1.752 1.748 1.748 0 0 1 -1.749 1.752z" fill="#e64c3c" transform="translate(2.26 2.245)"/><path d="m8.768 6.5a1.748 1.748 0 1 1 1.748-1.748 1.748 1.748 0 0 1 -1.748 1.748z" fill="#f0c419" transform="translate(5.253 2.245)"/><path d="m12.768 6.5a1.748 1.748 0 1 1 1.748-1.748 1.748 1.748 0 0 1 -1.748 1.748z" fill="#24ae5f" transform="translate(8.247 2.245)"/><path d="m53.748 8.993a1.748 1.748 0 0 1 -1.748-1.748v-3.5a1.748 1.748 0 0 1 3.5 0v3.5a1.748 1.748 0 0 1 -1.752 1.748z" fill="#bdc3c7" transform="translate(38.914 1.497)"/><path d="m52 4h3.5" fill="#bdc3c7" transform="translate(38.914 2.993)"/><path d="m56.245 6.5h-3.5a1.748 1.748 0 0 1 0-3.5h3.5a1.748 1.748 0 1 1 0 3.5z" fill="#bdc3c7" transform="translate(38.166 2.245)"/><path d="m46 4h3.5" fill="#bdc3c7" transform="translate(34.424 2.993)"/><path d="m50.245 6.5h-3.5a1.748 1.748 0 1 1 0-3.5h3.5a1.748 1.748 0 1 1 0 3.5z" fill="#bdc3c7" transform="translate(33.676 2.245)"/><rect fill="#2980ba" height="10.766" rx="1" width="53.002" x="8.466" y="22.545"/><path d="m57.45 25.5h-50.702a1.748 1.748 0 1 1 0-3.5h50.7a1.748 1.748 0 1 1 0 3.5z" fill="#3b97d3" transform="translate(3.742 16.464)"/><path d="m52.205 29.5h-45.457a1.748 1.748 0 0 1 0-3.5h45.457a1.748 1.748 0 0 1 0 3.5z" fill="#3b97d3" transform="translate(3.742 19.457)"/><path d="m48.709 33.5h-41.961a1.748 1.748 0 0 1 0-3.5h41.96a1.748 1.748 0 0 1 0 3.5z" fill="#3b97d3" transform="translate(3.742 22.45)"/><path d="m45.212 37.5h-38.464a1.748 1.748 0 0 1 0-3.5h38.464a1.748 1.748 0 1 1 0 3.5z" fill="#3b97d3" transform="translate(3.742 25.444)"/><path d="m52.433 40h-45.685a1.748 1.748 0 0 0 -1.748 1.748v20.98a1.748 1.748 0 0 0 1.748 1.748h80.424a1.748 1.748 0 0 0 1.748-1.748v-20.98a1.748 1.748 0 0 0 -1.748-1.748h-18.917" fill="#3b97d3" transform="translate(3.742 29.934)"/><path d="m44.556 47.649-11.014 9.351a1.748 1.748 0 0 1 -2.867-1.521l1.525-14.369c7.056 1.187 6.923.857 12.361 6.539z" fill="#f9eab0" transform="translate(22.948 30.764)"/><path d="m56.541 24.067-17.99 33.988c-1.969-1.035-3.341-1.114-7.011-1.731l18.83-35.544z" fill="#f3d55b" transform="translate(23.603 15.551)"/><path d="m59.712 25.929-18.812 35.527a21.283 21.283 0 0 0 -5.35-4.808l17.99-33.988z" fill="#f0c419" transform="translate(26.604 16.958)"/><path d="m58.988 22.336-2.448 4.633-12.36-6.538 2.448-4.631a5.245 5.245 0 0 1 7.1-2.185l3.072 1.623a5.245 5.245 0 0 1 2.185 7.1z" fill="#d75e72" transform="translate(33.062 9.728)"/><path d="m57.94 23.789-3.287 6.189c-7.408-3.925-4.572-2.418-12.343-6.556l3.269-6.172z" fill="#bdc3c7" transform="translate(31.663 12.909)"/><g fill="#9fc9d3"><path d="m12.245 52.5h-3.5a1.748 1.748 0 1 1 0-3.5h3.5a1.748 1.748 0 1 1 0 3.5z" transform="translate(5.238 36.669)"/><path d="m18.245 52.5h-3.5a1.748 1.748 0 1 1 0-3.5h3.5a1.748 1.748 0 1 1 0 3.5z" transform="translate(9.728 36.669)"/><path d="m24.245 52.5h-3.5a1.748 1.748 0 1 1 0-3.5h3.5a1.748 1.748 0 1 1 0 3.5z" transform="translate(14.218 36.669)"/><path d="m28.5 52.5h-1.752a1.748 1.748 0 0 1 0-3.5h1.752a1.748 1.748 0 1 1 0 3.5z" transform="translate(18.708 36.669)"/><path d="m39.5 52.5h-1.752a1.748 1.748 0 1 1 0-3.5h1.752a1.748 1.748 0 1 1 0 3.5z" transform="translate(26.94 36.669)"/><path d="m46.245 52.5h-3.5a1.748 1.748 0 0 1 0-3.5h3.5a1.748 1.748 0 0 1 0 3.5z" transform="translate(30.682 36.669)"/><path d="m52.245 52.5h-3.5a1.748 1.748 0 0 1 0-3.5h3.5a1.748 1.748 0 1 1 0 3.5z" transform="translate(35.172 36.669)"/></g></g><g transform="translate(-9.708)"><path d="m356.045 47.522v115.926l-20.045 10.023v-135.971z" fill="#06f5dd" transform="translate(-151.497 -24.972)"/><path d="m199.52 37.5v135.971l-83.52-10.023v-115.926z" fill="#8cfff3" transform="translate(-4.994 -24.972)"/><path d="m346.022 414.5-10.022 30.067h10.022a10.052 10.052 0 0 0 10.022-10.022v-20.045z" fill="#bfbfbf" transform="translate(-151.497 -276.023)"/><path d="m346.022 7.5h-10.022l10.022 20.045h10.022v-10.023a10.052 10.052 0 0 0 -10.022-10.022z" fill="#bfbfbf" transform="translate(-151.497 -4.994)"/><path d="m199.52 414.5v20.045a10.052 10.052 0 0 1 -10.02 10.022h-63.478a10.052 10.052 0 0 1 -10.022-10.022v-20.045z" fill="#dbdbdb" transform="translate(-4.994 -276.023)"/><path d="m199.52 17.522v10.023h-83.52v-10.023a10.052 10.052 0 0 1 10.022-10.022h63.478a10.052 10.052 0 0 1 10.02 10.022z" fill="#dbdbdb" transform="translate(-4.994 -4.994)"/><circle cx="157.777" cy="153.51" fill="#fff" r="5.011"/><path d="m194.526 0h-73.5a12.542 12.542 0 0 0 -12.526 12.528v145.993a12.542 12.542 0 0 0 12.528 12.528h73.5a12.542 12.542 0 0 0 12.528-12.528v-145.993a12.542 12.542 0 0 0 -12.53-12.528zm-73.5 5.011h73.5a7.525 7.525 0 0 1 7.517 7.517v7.517h-88.532v-7.517a7.525 7.525 0 0 1 7.517-7.517zm73.5 161.027h-73.5a7.525 7.525 0 0 1 -7.517-7.517v-17.539h7.517a2.506 2.506 0 1 0 0-5.011h-7.517v-110.915h88.531v110.915h-70.99a2.506 2.506 0 0 0 0 5.011h70.992v17.539a7.525 7.525 0 0 1 -7.516 7.517z"/><path d="m251.006 35.011h10.022a2.506 2.506 0 1 0 0-5.011h-10.022a2.506 2.506 0 0 0 0 5.011z" transform="translate(-93.229 -19.978)"/><path d="m241.017 437a7.517 7.517 0 1 0 7.517 7.517 7.525 7.525 0 0 0 -7.517-7.517zm0 10.022a2.506 2.506 0 1 1 2.506-2.506 2.508 2.508 0 0 1 -2.506 2.506z" transform="translate(-83.24 -291.007)"/><ellipse cx="147.777" cy="12.525" rx="2.5" ry="2"/></g></svg>