<svg height="124.662" viewBox="0 0 127.908 124.662" width="127.908" xmlns="http://www.w3.org/2000/svg"><g transform="translate(0 -6.497)"><g fill-rule="evenodd"><path d="m10.085 203.186c0 6.2 4.247 11.272 9.429 11.272h21.541v-18.185a3.454 3.454 0 0 1 3.44-3.446h3.363v-6.036a23.5 23.5 0 0 1 47 0v6.036h3.681a3.456 3.456 0 0 1 3.448 3.446v8.76l10.434 5.625c1.579.849 2.01 1.061 2.025 2.965.007.276 0 .552-.007.835h9.082c5.182 0 9.436-5.074 9.436-11.272v-51.408h-122.872z" fill="#f3eff0" transform="translate(-7.566 -108.986)"/><path d="m52.467 50.358h80.488v-22.51c0-6.192-4.247-11.265-9.436-11.265h-104c-5.189 0-9.429 5.067-9.429 11.265v22.51zm61.983-10.777h-28.585a6.015 6.015 0 1 1 0-12.029h28.585a6.015 6.015 0 1 1 0 12.029zm-79.844-6.015a6.021 6.021 0 1 1 -6.017-6.015 6.02 6.02 0 0 1 6.017 6.015zm22.214 0a6.021 6.021 0 1 1 -6.02-6.015 6.021 6.021 0 0 1 6.02 6.015z" fill="#cdc0c4" transform="translate(-7.566 -7.566)"/><path d="m330.391 394.167c3.667-2.194 6.647-5.887 8.948-10.168a28.223 28.223 0 0 0 3.525-12.341c.007-.283.014-.559.007-.835-.014-1.9-.446-2.116-2.025-2.965l-10.434-5.625-1.685-.906-12.119 6.531c-1.579.849-2 1.061-2.025 2.965a27.691 27.691 0 0 0 3.54 13.177c.588 1.09 1.218 2.144 1.89 3.149a23.131 23.131 0 0 0 7.051 7.019c1.472.877 1.862.877 3.327-.001z" fill="#a0e5a5" transform="translate(-235.994 -266.186)"/><path d="m154.977 72.516a6.015 6.015 0 1 0 -6.017-6.016 6.021 6.021 0 0 0 6.017 6.016z" fill="#a0e5a5" transform="translate(-111.747 -40.502)"/><path d="m66.066 72.516a6.015 6.015 0 1 0 -6.024-6.016 6.02 6.02 0 0 0 6.024 6.016z" fill="#a0e5a5" transform="translate(-45.043 -40.502)"/><path d="m295.354 72.516h28.585a6.015 6.015 0 1 0 0-12.029h-28.585a6.015 6.015 0 1 0 0 12.029z" fill="#ffda8f" transform="translate(-217.055 -40.502)"/><path d="m175.169 220a9.78 9.78 0 0 1 19.559 0v7.437h13.556v-6.037a23.5 23.5 0 0 0 -47 0v6.036h13.882z" fill="#cdc0c4" transform="translate(-120.995 -143.6)"/><path d="m137.5 353.213h47.089c-.673-1-1.3-2.059-1.89-3.149a27.692 27.692 0 0 1 -3.539-13.176c.021-1.9.446-2.116 2.025-2.965l12.119-6.531 1.685.906v-8.76a3.456 3.456 0 0 0 -3.448-3.446h-54.041a3.454 3.454 0 0 0 -3.44 3.446v30.229a3.454 3.454 0 0 0 3.441 3.446z" fill="#ffcd69" transform="translate(-100.566 -232.251)"/><path d="m216.854 264.392h19.559v-7.437a9.78 9.78 0 0 0 -19.559 0z" fill="#e6dfe1" transform="translate(-162.68 -180.552)"/></g><path d="m248.42 360.447a2.519 2.519 0 0 0 -2.519 2.519v9.673a2.519 2.519 0 0 0 5.039 0v-9.673a2.519 2.519 0 0 0 -2.52-2.519z" transform="translate(-184.47 -265.526)"/><path d="m58.5 50.4a8.534 8.534 0 1 0 8.537 8.534 8.549 8.549 0 0 0 -8.537-8.534zm0 12.03a3.5 3.5 0 1 1 3.5-3.5 3.5 3.5 0 0 1 -3.5 3.501z" transform="translate(-37.477 -32.936)"/><path d="m115.953 6.5h-104c-6.593 0-11.953 6.181-11.953 13.782v73.918c0 7.6 5.36 13.792 11.949 13.792h19.022v9.524a5.97 5.97 0 0 0 5.96 5.966h45.779a24.44 24.44 0 0 0 7.067 6.662 4.81 4.81 0 0 0 5.91 0c3.8-2.275 7.124-6.022 9.875-11.14a31.889 31.889 0 0 0 3.63-11.012h6.757c6.592 0 11.955-6.187 11.955-13.792v-73.918c0-7.6-5.363-13.785-11.956-13.785zm-79.023 111.942a.936.936 0 0 1 -.921-.927v-30.229a.936.936 0 0 1 .921-.927h54.041a.94.94 0 0 1 .928.927v5.481a2.529 2.529 0 0 0 -.361.155l-12.117 6.531-.04.021c-1.977 1.063-3.276 2-3.311 5.142a29.947 29.947 0 0 0 3.547 13.826zm27.021-54.342a12.311 12.311 0 0 0 -12.3 12.3v4.918h-8.839v-3.518a20.979 20.979 0 0 1 41.958 0v3.516h-8.517v-4.916a12.315 12.315 0 0 0 -12.302-12.3zm7.264 12.3v4.918h-14.521v-4.918a7.26 7.26 0 0 1 14.52 0zm29.912 40.217c-2.28 4.242-5.054 7.423-8.023 9.2-.158.095-.278.163-.368.212-.091-.049-.212-.118-.371-.213-2.971-1.778-5.742-4.958-8.015-9.2a25.166 25.166 0 0 1 -3.239-11.954c0-.174.008-.3.015-.4.178-.1.428-.239.644-.355l10.964-5.907 10.926 5.888.049.026c.213.114.46.247.637.351.006.094.012.222.013.394a25.151 25.151 0 0 1 -3.232 11.958zm21.744-76.348h-77.971a2.519 2.519 0 0 0 0 5.039h77.968v48.892c0 4.745-3.167 8.753-6.917 8.753h-6.728c-.414-1.859-1.555-2.626-3.13-3.473l-9.157-4.935v-7.259a5.973 5.973 0 0 0 -5.967-5.965h-1.16v-3.521a26.018 26.018 0 0 0 -52.036 0v3.516h-.843a5.969 5.969 0 0 0 -5.96 5.965v15.667h-19.021c-3.746 0-6.91-4.008-6.91-8.753v-48.884h17.429a2.519 2.519 0 0 0 0-5.039h-17.429v-19.99c0-4.741 3.164-8.746 6.91-8.746h104c3.749 0 6.917 4.005 6.917 8.746z"/><path d="m147.412 50.4a8.534 8.534 0 1 0 8.544 8.534 8.545 8.545 0 0 0 -8.544-8.534zm0 12.03a3.5 3.5 0 1 1 3.5-3.5 3.5 3.5 0 0 1 -3.5 3.501z" transform="translate(-104.181 -32.936)"/><path d="m316.374 50.4h-28.585a8.534 8.534 0 1 0 0 17.068h28.585a8.534 8.534 0 1 0 0-17.068zm0 12.03h-28.585a3.5 3.5 0 1 1 0-6.991h28.585a3.5 3.5 0 1 1 0 6.991z" transform="translate(-209.49 -32.936)"/><path d="m127.262 141.693h-.014a2.526 2.526 0 1 0 .014 0z" transform="translate(-93.574 -101.421)"/></g></svg>